<svg id="Layer_1" data-name="Layer 1" xmlns="http://www.w3.org/2000/svg" viewBox="0 0 295.85 74.02"><title>tech2</title><path d="M2.29,14.22H69.53V31.89H47V85.8H24.85V31.89H2.29Z" transform="translate(-2.29 -13)"/><path d="M79.49,14.22h59.28V29.5H101.66V40.88h34.42v14.6H101.66V69.59h38.18V85.8H79.49Z" transform="translate(-2.29 -13)"/><path d="M199.41,56.5l19.39,5.86A35.62,35.62,0,0,1,212.65,76a26.74,26.74,0,0,1-10.43,8.26Q196,87,186.38,87q-11.67,0-19.07-3.39T154.54,71.7q-5.37-8.55-5.37-21.86,0-17.76,9.45-27.3T185.35,13q13.53,0,21.27,5.46t11.5,16.8l-19.54,4.35a17,17,0,0,0-2.14-4.79,12.78,12.78,0,0,0-4.55-3.9,13.94,13.94,0,0,0-17.52,4.68q-3,4.49-3,14.09,0,11.89,3.61,16.31t10.16,4.42q6.34,0,9.59-3.57T199.41,56.5Z" transform="translate(-2.29 -13)"/><path d="M229.64,14.22h22.12V39.27h24.17V14.22h22.21V85.8H275.93v-29H251.76v29H229.64Z" transform="translate(-2.29 -13)"/></svg>